<?xml version="1.0" encoding="UTF-8" standalone="no"?>
<!DOCTYPE svg PUBLIC "-//W3C//DTD SVG 1.1//EN" "http://www.w3.org/Graphics/SVG/1.1/DTD/svg11.dtd">
<svg version="1.1" xmlns="http://www.w3.org/2000/svg" xmlns:xlink="http://www.w3.org/1999/xlink" preserveAspectRatio="xMidYMid meet" viewBox="5.148280219032291 3.6660611498627285 391.52049077601765 392.63233954536105" width="387.52" height="388.63"><defs><path d="M192.4 4.73C191.64 4.81 187.71 5.15 183.68 5.49C171.09 6.54 168.68 6.87 159.11 8.9C147.25 11.41 133.81 15.36 130.19 17.39C129.64 17.7 126.96 18.77 124.23 19.77C121.51 20.77 118.26 22.2 117.01 22.96C115.76 23.72 113.45 24.87 111.87 25.52C110.29 26.18 107.34 27.7 105.3 28.91C103.27 30.13 100.86 31.4 99.94 31.74C99.02 32.09 97.74 32.83 97.09 33.4C94.81 35.38 92.69 36.89 90.73 37.94C89.65 38.51 87.78 39.79 86.58 40.77C85.38 41.75 83.48 43.16 82.36 43.9C81.23 44.64 79.45 46.08 78.4 47.1C77.34 48.12 75.76 49.37 74.89 49.89C74.02 50.42 70.64 53.34 67.38 56.4C64.12 59.45 61.33 61.95 61.17 61.95C60.92 61.95 60.28 62.77 56.79 67.47C56.21 68.25 54.82 69.6 53.69 70.47C52.46 71.42 51.25 72.82 50.67 73.95C50.14 74.99 49.16 76.32 48.49 76.92C47.82 77.52 46.97 78.57 46.61 79.27C46.25 79.96 45.02 81.66 43.86 83.03C40.47 87.07 36.6 92.53 35.79 94.41C35.38 95.37 34.52 96.75 33.89 97.46C33.26 98.18 32.17 99.98 31.46 101.47C30.76 102.95 29.49 105.26 28.64 106.6C27.8 107.95 26.65 110.17 26.09 111.54C25.54 112.92 24.49 115.21 23.77 116.63C23.06 118.06 22.24 120.03 21.95 121.01C21.66 121.99 21.04 123.32 20.56 123.98C20.08 124.63 19.41 126.06 19.07 127.15C18.74 128.24 17.72 131.18 16.82 133.69C15.92 136.19 14.57 140.47 13.83 143.2C13.08 145.92 12.22 148.78 11.91 149.54C4.25 168.45 4.22 221.97 11.86 247.43C12.35 249.07 12.96 251.52 13.22 252.89C13.48 254.25 14.05 256.19 14.48 257.2C14.91 258.2 15.72 260.63 16.28 262.58C16.85 264.54 17.8 267.24 18.41 268.58C19.01 269.92 19.93 272.08 20.45 273.37C20.96 274.67 22.16 277.26 23.11 279.12C24.06 280.98 25.24 283.58 25.75 284.88C26.25 286.19 27.57 288.78 28.68 290.63C29.79 292.48 30.91 294.62 31.16 295.39C31.41 296.15 31.89 297.22 32.22 297.76C33.59 300 36.37 304.1 38.59 307.16C39.89 308.95 41.77 311.69 42.77 313.24C43.77 314.79 45.74 317.37 47.14 318.97C48.54 320.57 50.11 322.57 50.64 323.41C51.82 325.27 58.62 332.55 63.41 337.07C64.49 338.09 65.93 339.61 66.61 340.45C67.29 341.28 68.63 342.5 69.59 343.14C70.54 343.79 71.96 344.94 72.74 345.71C75.83 348.76 77.41 350.06 80.64 352.24C82.49 353.49 84.54 355.01 85.2 355.62C85.85 356.23 87.63 357.54 89.16 358.54C93.48 361.37 95.68 362.88 96.86 363.83C97.46 364.31 98.74 365.03 99.71 365.42C100.68 365.81 102.27 366.63 103.24 367.25C107.12 369.7 110.48 371.56 112.06 372.11C112.98 372.44 114.93 373.42 116.38 374.3C117.84 375.18 119.89 376.16 120.94 376.47C121.99 376.79 123.74 377.47 124.83 378C127.01 379.06 135.13 382.18 135.69 382.18C135.89 382.18 138.44 383.06 141.37 384.14C144.3 385.22 148.37 386.38 150.42 386.73C152.48 387.08 156.12 387.89 158.52 388.52C160.91 389.15 164.93 389.96 167.43 390.31C169.94 390.67 174.33 391.31 177.18 391.74C191.18 393.84 205.93 393.82 220.54 391.66C221.74 391.48 225.22 391.06 228.27 390.73C235.77 389.9 236.42 389.79 240.75 388.7C242.82 388.18 246.03 387.47 247.87 387.12C249.72 386.77 252.66 385.99 254.41 385.38C256.16 384.78 258.55 384.05 259.73 383.77C260.9 383.49 263.42 382.59 265.33 381.76C267.25 380.93 269.58 380.04 270.53 379.79C272.77 379.2 288.17 372.17 291.48 370.24C292.46 369.67 295.55 367.88 298.36 366.28C301.16 364.67 304.19 362.78 305.09 362.08C306 361.38 307.63 360.33 308.72 359.75C309.81 359.18 311.86 357.68 313.28 356.43C314.69 355.18 316.43 353.87 317.13 353.5C318.68 352.71 326.36 346.21 326.36 345.7C326.36 345.51 326.85 345.09 327.45 344.78C328.06 344.46 329.93 342.86 331.62 341.2C333.31 339.55 335.2 337.94 335.81 337.62C336.43 337.31 337.38 336.46 337.94 335.74C338.5 335.01 340.09 333.24 341.47 331.8C342.86 330.36 344.97 327.98 346.17 326.52C347.37 325.06 349.31 322.76 350.48 321.42C351.66 320.07 353.03 318.34 353.55 317.58C354.06 316.82 355.45 314.86 356.64 313.22C357.83 311.59 359.46 309.18 360.25 307.87C361.05 306.56 362.49 304.42 363.45 303.11C366.32 299.22 368 296.49 368.74 294.54C369.13 293.53 369.91 292.09 370.49 291.33C371.07 290.58 371.54 289.86 371.54 289.73C371.54 289.6 372.85 286.76 374.45 283.42C376.05 280.09 377.68 276.46 378.07 275.37C378.45 274.28 379.09 272.86 379.47 272.2C380.42 270.57 385.82 254.01 387.62 247.23C389.18 241.32 389.85 238.2 390.5 233.76C390.72 232.23 391.36 228.84 391.92 226.23C394.22 215.52 394.26 181.05 391.98 171.34C391.65 169.92 391.01 166.36 390.56 163.41C390.11 160.47 389.47 157.22 389.14 156.2C388.8 155.17 388.2 153.03 387.81 151.44C386 144.14 384.1 137.62 383.05 135.08C382.43 133.55 381.7 131.5 381.44 130.52C380.92 128.55 378.48 122.55 376.67 118.76C376.03 117.42 375.5 116.15 375.5 115.94C375.5 115.4 371.17 107.13 370.3 106.01C369.91 105.5 369.21 104.08 368.75 102.84C368.29 101.61 367.51 100.15 367.02 99.6C366.52 99.06 365.09 97.01 363.82 95.05C362.56 93.09 360.76 90.41 359.81 89.1C358.87 87.79 357.53 85.74 356.82 84.54C356.12 83.35 355.09 81.81 354.52 81.13C353.96 80.46 352.79 78.97 351.92 77.83C351.05 76.69 349.23 74.67 347.87 73.36C346.52 72.04 344.65 69.96 343.71 68.74C341.66 66.05 329.92 54.26 328.35 53.3C327.74 52.93 326.37 51.66 325.31 50.48C324.25 49.31 322.48 47.76 321.37 47.05C320.26 46.34 318.38 44.88 317.2 43.82C316.03 42.75 314.17 41.36 313.08 40.73C311.99 40.11 309.94 38.79 308.52 37.82C302.61 33.74 300.17 32.23 296.04 30.06C293.64 28.81 291.41 27.56 291.08 27.28C290.33 26.64 281.66 22.46 274.24 19.15C270.78 17.62 254 12.03 249.47 10.91C235.62 7.48 229.35 6.45 216.58 5.5C209.28 4.95 194.76 4.49 192.4 4.73M205.27 40.57C208.47 40.87 210.66 41.35 213.59 42.39C215.78 43.17 218.59 44.12 219.83 44.51C221.08 44.91 223.22 46.01 224.59 46.97C225.96 47.92 228.15 49.32 229.46 50.06C230.76 50.81 232.66 52.32 233.66 53.42C237.48 57.6 238.69 59.03 239.7 60.57C240.27 61.44 241.8 63.67 243.1 65.52C250.85 76.59 252.78 98.76 247 110.17C246.24 111.66 245.4 113.55 245.14 114.36C244.72 115.64 243.27 117.99 239.71 123.16C238.33 125.16 230.57 132.62 228.76 133.69C227.83 134.23 226 135.41 224.7 136.3C223.25 137.29 220.47 138.56 217.57 139.56C201.99 144.95 191.15 144.69 178.33 138.63C176.8 137.91 174.4 136.81 172.98 136.17C168.53 134.18 162.12 128.5 157.87 122.79C155.14 119.12 151.98 113.83 151.97 112.94C151.97 112.69 151.44 111.35 150.79 109.97C148.94 106.07 147.02 94.59 147.31 89.12C147.62 83.14 149.77 74.77 152.4 69.34C153.87 66.29 154.33 65.54 157.01 61.79C159.83 57.85 167.93 50.11 170.77 48.64C172.31 47.84 174.17 46.74 174.9 46.2C175.63 45.66 178.66 44.37 181.64 43.33C186.31 41.7 188.78 41.09 193.59 40.41C195.72 40.1 201.13 40.18 205.27 40.57M195.32 59.55C188 62.87 186.41 71.92 192.3 76.76C198.6 81.92 208.05 78.49 208.88 70.73C209.74 62.64 202.2 56.42 195.32 59.55M175.25 94.09C165.46 96.4 164.69 109.13 174.05 113.83C177.07 115.34 180.27 114.84 183.82 112.29C192.97 105.71 186.27 91.5 175.25 94.09M216.69 94.04C212.97 94.93 209.63 100.05 210.01 104.29C211.05 115.74 224.06 118.73 229.28 108.72C233.38 100.84 225.71 91.9 216.69 94.04M75.14 201.68C76.67 202.47 78.05 205.43 78.67 209.19C79.46 214.08 84.72 230.3 86.33 232.86C86.64 233.36 87.03 234.21 87.19 234.75C87.49 235.8 90.58 242.91 91.53 244.76C91.84 245.36 94.22 249.99 96.81 255.06C99.4 260.13 102.35 265.66 103.35 267.35C104.35 269.04 105.9 271.98 106.8 273.89C107.69 275.79 109.1 278.42 109.93 279.73C111.66 282.45 118.29 294.78 118.29 295.27C118.29 295.45 118.76 296.29 119.33 297.14C121.75 300.7 124.37 309.99 123.97 313.62C123.6 316.91 120.92 325.13 119.32 327.87C118.53 329.21 117.89 330.38 117.89 330.47C117.89 330.81 114.99 335.24 114.14 336.21C113.66 336.75 112.78 338 112.19 338.98C108.05 345.88 103.31 348.71 100.4 346.02C99.87 345.53 98.19 344.15 96.67 342.96C95.16 341.77 93.2 340.09 92.33 339.24C91.46 338.39 89.6 336.69 88.2 335.46C86.81 334.24 84.67 332.16 83.46 330.86C82.24 329.55 80.43 327.68 79.44 326.7C77.34 324.62 73.09 319.14 72.17 317.32C71.82 316.63 70.53 314.67 69.31 312.96C68.08 311.25 66.54 308.79 65.89 307.5C65.23 306.2 64.37 304.69 63.96 304.13C63.55 303.57 62.26 300.8 61.09 297.96C59.92 295.13 58.59 292.09 58.15 291.21C57.7 290.34 56.93 287.75 56.44 285.47C55.96 283.18 55.32 280.64 55.03 279.8C53.54 275.55 52.99 254.03 54.2 247.04C54.95 242.71 57.37 233.5 58.37 231.15C58.8 230.16 59.37 228.28 59.64 226.99C59.92 225.7 60.55 224.02 61.05 223.26C61.55 222.49 62.32 220.98 62.75 219.89C63.19 218.8 64.53 216.12 65.72 213.94C66.92 211.76 68.47 208.91 69.17 207.6C72.38 201.6 73.27 200.72 75.14 201.68M334.32 203.69C334.73 204.32 335.28 205.45 335.53 206.21C335.78 206.98 336.91 209.03 338.05 210.77C340.19 214.06 342.12 218.13 344.45 224.25C345.2 226.21 345.98 228.17 346.19 228.61C350.78 238.21 353.11 260.54 350.99 274.67C349.1 287.28 343.59 302.19 337.5 311.18C336.66 312.41 335.62 314.13 335.17 315C334.73 315.88 333.97 316.95 333.48 317.38C333 317.82 331.41 319.78 329.95 321.74C326.45 326.45 318.67 334.71 314.86 337.78C313.09 339.2 311.38 340.69 307.55 344.15C303.82 347.52 300.21 348.01 298.32 345.41C297.72 344.59 296.52 343.07 295.65 342.04C283.3 327.33 279.21 314.13 283.75 303.72C284.28 302.51 284.91 300.73 285.16 299.75C285.41 298.77 286.38 296.54 287.31 294.79C288.25 293.05 290.38 288.95 292.06 285.68C293.74 282.41 295.52 279.2 296.01 278.54C296.5 277.89 297.13 276.67 297.41 275.83C297.68 275 298.42 273.73 299.04 273.02C299.66 272.31 300.51 270.94 300.93 269.98C301.34 269.01 302.75 266.36 304.06 264.07C305.36 261.79 306.74 258.99 307.1 257.86C307.47 256.73 308.33 255.04 309.02 254.1C309.7 253.16 311.19 250.3 312.33 247.76C313.48 245.21 314.7 242.69 315.04 242.17C315.38 241.64 316.18 239.8 316.82 238.08C317.45 236.36 318.79 233.23 319.79 231.14C320.78 229.04 321.6 226.99 321.61 226.58C321.61 226.17 321.99 225.03 322.44 224.05C323.7 221.31 326.64 212.02 328.34 205.36C328.6 204.34 329.15 202.97 329.55 202.3C329.6 202.22 329.85 201.82 330.29 201.09C331.28 201.53 331.82 201.77 331.93 201.82C332.84 202.23 333.91 203.07 334.32 203.69" id="b6wb0yaYJV"></path></defs><g><g><use xlink:href="#b6wb0yaYJV" opacity="1" fill="#4382f7" fill-opacity="1"></use><g><use xlink:href="#b6wb0yaYJV" opacity="1" fill-opacity="0" stroke="#000000" stroke-width="1" stroke-opacity="0"></use></g></g></g></svg>